<svg width="31" height="31" viewBox="0 0 31 31" fill="none" xmlns="http://www.w3.org/2000/svg">
<path d="M26.3615 16.1851V18.515C26.3575 19.8272 25.6858 21.0847 24.4933 22.0126C23.3008 22.9404 21.6846 23.4631 19.9981 23.4661H18.5008C17.8071 23.4692 17.1429 23.685 16.6524 24.0666C16.1619 24.4483 15.8845 24.9651 15.8806 25.5049V27.8348C15.8806 28.221 15.6834 28.5914 15.3324 28.8645C14.9815 29.1376 14.5054 29.291 14.009 29.291C13.5127 29.291 13.0366 29.1376 12.6856 28.8645C12.3346 28.5914 12.1375 28.221 12.1375 27.8348V25.5049C12.1414 24.1927 12.8131 22.9351 14.0056 22.0073C15.1981 21.0794 16.8144 20.5568 18.5008 20.5537H19.9981C20.6276 20.5531 21.2359 20.3762 21.7115 20.0553C22.1872 19.7345 22.4984 19.2911 22.5884 18.8063" stroke="black" stroke-width="1.17402" stroke-linecap="round" stroke-linejoin="round"/>
<path d="M16.3004 1.18506C15.6843 4.14632 15.9794 6.67681 17.5258 9.54389C18.7264 11.7701 19.1735 14.465 19.0245 16.9443C18.9599 18.0159 19.698 19.0172 20.6778 19.0172C21.6275 19.0172 22.4786 18.2984 22.5625 17.2619" stroke="black" stroke-width="1.17402" stroke-linecap="round" stroke-linejoin="round"/>
<path d="M20.0481 1.18506C19.4367 4.14632 19.7295 6.67681 21.2642 9.54389C22.4557 11.7701 22.8994 14.465 22.7515 16.9443C22.6874 18.0159 23.4199 19.0172 24.3923 19.0172C25.3348 19.0172 26.1794 18.2984 26.2627 17.2619C26.4697 14.6968 26.0411 11.8654 24.7981 9.54389C23.2634 6.67681 22.9701 4.14632 23.582 1.18506" stroke="black" stroke-width="1.17402" stroke-linecap="round" stroke-linejoin="round"/>
<path d="M27.1897 1.18506C26.546 4.14632 26.8546 6.67681 28.4696 9.54389C29.7771 11.8654 30.2275 14.6968 30.0103 17.2619C29.9227 18.2984 29.0336 19.0172 28.0426 19.0172C27.0198 19.0172 26.2492 18.0159 26.3166 16.9443" stroke="black" stroke-width="1.17402" stroke-linecap="round" stroke-linejoin="round"/>
<path d="M1 8.1195H6.55C6.92578 8.11991 7.29485 8.2269 7.62018 8.42973C7.94552 8.63256 8.21568 8.92409 8.40357 9.27509C8.79778 9.99293 9.36154 10.5851 10.0373 10.9911C10.7131 11.3972 11.4766 11.6025 12.25 11.5863V1.18596C11.4766 1.16969 10.7131 1.37505 10.0373 1.78109C9.36154 2.18713 8.79778 2.77929 8.40357 3.49714C8.21568 3.84813 7.94552 4.13967 7.62018 4.34249C7.29485 4.54532 6.92578 4.65231 6.55 4.65273H1" stroke="black" stroke-width="1.17402" stroke-linecap="round" stroke-linejoin="round"/>
<path d="M27.4388 1.18506L30.2513 1.18506" stroke="black" stroke-width="1.17402" stroke-linecap="round" stroke-linejoin="round"/>
<path d="M12.25 1.18506H27.25" stroke="black" stroke-width="1.17402" stroke-linecap="round" stroke-linejoin="round"/>
<path d="M27.25 4.90015L30.0625 4.90015" stroke="black" stroke-width="1.17402" stroke-linecap="round" stroke-linejoin="round"/>
<path d="M12.25 4.90015H16" stroke="black" stroke-width="1.17402" stroke-linecap="round" stroke-linejoin="round"/>
<path d="M28.1875 8.61511H30.0625" stroke="black" stroke-width="1.17402" stroke-linecap="round" stroke-linejoin="round"/>
<path d="M12.25 8.61511H16.9375" stroke="black" stroke-width="1.17402" stroke-linecap="round" stroke-linejoin="round"/>
<path d="M12.25 11.5873H17.875" stroke="black" stroke-width="1.17402" stroke-linecap="round" stroke-linejoin="round"/>
</svg>
