<svg width="39" height="38" viewBox="0 0 39 38" fill="none" xmlns="http://www.w3.org/2000/svg">
<g clip-path="url(#clip0_2701_728)">
<path d="M1 21.3713C1 29.2109 8.98542 35.4826 19.3665 35.4826C29.7475 35.4826 37.7329 29.2109 37.7329 21.3713H1Z" stroke="#2A2A2A" stroke-width="1.5" stroke-linecap="round" stroke-linejoin="round"/>
<path d="M16.1724 18.6187C15.9519 18.1611 15.6316 17.7567 15.2342 17.4342C14.8367 17.1118 14.3719 16.8791 13.8726 16.7529C13.9094 16.2823 13.8502 15.8092 13.6983 15.3615C13.5464 14.9137 13.3049 14.5002 12.9881 14.1453C12.6712 13.7904 12.2853 13.5012 11.853 13.2947C11.4207 13.0882 10.9508 12.9686 10.4708 12.9428C10.3484 12.4072 10.1191 11.9008 9.79613 11.4527C9.4732 11.0046 9.06303 10.6237 8.58932 10.3322C8.11561 10.0406 7.58775 9.84407 7.03623 9.75392C6.4847 9.66378 5.92045 9.68181 5.37607 9.80698C4.84258 9.98707 4.35151 10.2708 3.93215 10.6413C3.5128 11.0118 3.17377 11.4614 2.93528 11.9633C2.69679 12.4652 2.56374 13.0092 2.54406 13.5627C2.52438 14.1162 2.61848 14.6679 2.82074 15.1849C2.19549 15.6008 1.72494 16.205 1.48007 16.9064C1.2352 17.6078 1.22929 18.3684 1.46321 19.0734C1.57174 19.4793 1.75585 19.8621 2.00622 20.2023C1.74969 20.4465 1.53886 20.7331 1.38336 21.0489" stroke="#2A2A2A" stroke-width="1.5" stroke-linecap="round" stroke-linejoin="round"/>
<path d="M25.627 11.1401C25.6049 10.1585 25.2411 9.21393 24.596 8.46363C23.9509 7.71334 23.0634 7.20262 22.0814 7.01652C22.0433 6.33354 21.8659 5.66502 21.5598 5.05057C21.2537 4.43612 20.8251 3.88823 20.2994 3.43936C19.7737 2.9905 19.1615 2.64979 18.4993 2.43742C17.837 2.22505 17.138 2.14534 16.4437 2.20302C15.7609 2.33164 15.1113 2.59322 14.5331 2.97233C13.9549 3.35143 13.46 3.84038 13.0774 4.41033C12.6948 4.98027 12.4324 5.61967 12.3056 6.29079C12.1789 6.96192 12.1903 7.65117 12.3392 8.31789C11.6725 8.62242 11.0998 9.09466 10.679 9.6867C10.2583 10.2787 10.0046 10.9695 9.9436 11.6889" stroke="#2A2A2A" stroke-width="1.5" stroke-linecap="round" stroke-linejoin="round"/>
<path d="M34.6346 20.9707C35.1519 20.7623 35.6173 20.4465 35.9988 20.045C36.3803 19.6435 36.6689 19.1658 36.8449 18.6447C37.0208 18.1235 37.0799 17.5711 37.0182 17.0254C36.9565 16.4797 36.7753 15.9536 36.4872 15.483C36.8447 15.174 37.136 14.7983 37.3442 14.3778C37.5525 13.9572 37.6735 13.5003 37.7003 13.0334C37.727 12.5665 37.659 12.0991 37.5001 11.6583C37.3412 11.2175 37.0946 10.8121 36.7747 10.4657C37.0805 10.0006 37.2882 9.48008 37.3856 8.93482C37.4829 8.38957 37.4678 7.83069 37.3412 7.29125C37.2147 6.75181 36.9792 6.24278 36.6487 5.79427C36.3182 5.34576 35.8994 4.96689 35.4171 4.68007C34.9066 4.44568 34.3534 4.31415 33.7903 4.29324C33.2271 4.27233 32.6654 4.36248 32.1383 4.55835C31.6112 4.75422 31.1295 5.05184 30.7216 5.43361C30.3137 5.81539 29.9879 6.27357 29.7635 6.78108C29.2297 6.69907 28.684 6.73469 28.166 6.88537C27.648 7.03605 27.1706 7.29801 26.7685 7.65225C26.3664 8.0065 26.0496 8.44415 25.8411 8.93347C25.6326 9.4228 25.5377 9.95154 25.5631 10.4814" stroke="#2A2A2A" stroke-width="1.5" stroke-linecap="round" stroke-linejoin="round"/>
<path d="M16.5396 20.9709C16.2368 20.2562 16.1184 19.4791 16.1948 18.7086C16.2713 17.9382 16.5402 17.1982 16.9778 16.5542C17.4154 15.9103 18.0081 15.3823 18.7034 15.0171C19.3987 14.652 20.175 14.4609 20.9635 14.4609C21.752 14.4609 22.5283 14.652 23.2236 15.0171C23.9188 15.3823 24.5116 15.9103 24.9492 16.5542C25.3868 17.1982 25.6557 17.9382 25.7322 18.7086C25.8086 19.4791 25.6902 20.2562 25.3874 20.9709" stroke="#2A2A2A" stroke-width="1.5" stroke-linecap="round" stroke-linejoin="round"/>
<path d="M24.4133 15.8599C24.5309 15.6382 24.67 15.4282 24.8286 15.2327C25.4978 14.3844 26.4829 13.8319 27.5671 13.6966C28.6514 13.5613 29.7459 13.8545 30.61 14.5115C31.4741 15.1685 32.0369 16.1356 32.1747 17.2C32.3125 18.2645 32.0139 19.339 31.3447 20.1873C31.1167 20.4738 30.8539 20.7318 30.5621 20.9556" stroke="#2A2A2A" stroke-width="1.5" stroke-linecap="round" stroke-linejoin="round"/>
<path d="M7.38831 16.0159C8.38873 17.4852 8.94266 19.2036 8.98539 20.9705" stroke="#2A2A2A" stroke-width="1.5" stroke-linecap="round" stroke-linejoin="round"/>
<path d="M16.9708 7.39282C18.0046 9.82814 18.547 12.4373 18.5679 15.0756" stroke="#2A2A2A" stroke-width="1.5" stroke-linecap="round" stroke-linejoin="round"/>
<path d="M32.9416 9.74438C31.6588 11.0028 30.528 12.4023 29.5718 13.915" stroke="#2A2A2A" stroke-width="1.5" stroke-linecap="round" stroke-linejoin="round"/>
</g>
<defs>
<clipPath id="clip0_2701_728">
<rect width="38.33" height="37.63" fill="white" transform="translate(0 0.185059)"/>
</clipPath>
</defs>
</svg>
